<svg id="bc33c30c-6b93-4cd1-85c1-dc9187bd0149" data-name="Layer 1" xmlns="http://www.w3.org/2000/svg" viewBox="0 0 75.77 76.25"><defs><style>.a7a23ea5-d695-49e1-9091-4ee76d210139{fill:#069;}.ab8b7ec8-f58c-40d6-b1a5-87123771b422{fill:#fff;fill-rule:evenodd;}</style></defs><title>linkedin-logo</title><path id="e083079f-8402-4848-b923-b8afe2e583bc" data-name="path14" class="a7a23ea5-d695-49e1-9091-4ee76d210139" d="M0,5.46A5.54,5.54,0,0,1,5.6,0H70.17a5.54,5.54,0,0,1,5.6,5.46V70.79a5.54,5.54,0,0,1-5.6,5.46H5.6A5.54,5.54,0,0,1,0,70.79Z"/><path id="f25a6ec9-9e74-480b-aceb-80db76cea64e" data-name="path28" class="ab8b7ec8-f58c-40d6-b1a5-87123771b422" d="M23,63.83V29.4H11.52V63.83ZM17.25,24.7c4,0,6.47-2.65,6.47-5.95s-2.48-5.95-6.4-5.95-6.47,2.57-6.47,5.95,2.48,5.95,6.32,5.95Z"/><path id="f588af8d-d956-4364-b595-9ab33bf9efbb" data-name="path30" class="ab8b7ec8-f58c-40d6-b1a5-87123771b422" d="M29.3,63.83H40.74V44.6a7.85,7.85,0,0,1,.38-2.79A6.26,6.26,0,0,1,47,37.62c4.14,0,5.8,3.16,5.8,7.79V63.83H64.23V44.09c0-10.58-5.64-15.5-13.17-15.5a11.38,11.38,0,0,0-10.39,5.8h.07v-5H29.3c.15,3.23,0,34.43,0,34.43Z"/></svg>