<svg xmlns="http://www.w3.org/2000/svg" viewBox="0 0 581.16 126.19"><defs><style>.bbdd0fb7-9b44-4f1f-a98f-346d9389204e{fill:#26a800;}.e6ea3117-4c42-4f71-ae86-e34a6520304e{fill:#ff82e0;}.fa6187a8-ba7c-46f3-8073-0d77e8b33cea{fill:#ac7dea;}.ae603cde-1309-48a6-adcb-8a83ee3d6e45{fill:#9663d8;}.b7c3ce46-25bb-465f-a308-9539c045d7c6{fill:#81470b;}</style></defs><title>main-site-graphics</title><g id="ea231415-0f47-49c8-b5f4-8dd5eaefc72a" data-name="Layer 5"><path class="bbdd0fb7-9b44-4f1f-a98f-346d9389204e" d="M89.53,72.39H189.65a46.78,46.78,0,0,0,2.79-16.22c0-9.43-4.83-27.3-4.83-27.3S188.12,34,187,37a16.17,16.17,0,0,0-.52,6.91s-5.85-7.24-2.6-12.63S187.05,24,187.05,24s-7.21,5.41-8.17,11.33,5.57,12.84,5.57,12.84-7.09-5.35-8.36-11,2-7.7.75-15.6-5.76-18.57-5.76-18.57,1.36,9.13,1.48,14.67-1.89,18.42-1.67,24a53.94,53.94,0,0,0,.74,8S167.22,38.2,167.36,32s.33-7.52.28-11.51-3.81-8.18-3.81-8.18,1.91,4.34.93,14.86-3.34,15.42-3.34,15.42-3.52-8.76-6.32-12.44,3.16-8,3.16-8-8.54,3.81-7.06,8.54a39.88,39.88,0,0,1,1.86,8.92c0,.56-3.72-2.65-4.64-5.39s.37-9.1.37-9.1a28.88,28.88,0,0,0-3.9,11.08A32.42,32.42,0,0,0,146,48.74s-6.5-3.16-6.87-8.92,1.21-6.73.74-10.4-7.24-9.29-7.24-9.29a18.89,18.89,0,0,1,2.6,10.22c0,6.41-1.67,5.85-2.79,12.45a69.38,69.38,0,0,0-1.11,8s-9.07-3.58-10-10.21A12,12,0,0,1,125.2,30s-8.13,6.27-9.48,8.54a15.81,15.81,0,0,0-1.85,8.92,23.64,23.64,0,0,0,2.22,6.32s-3.13-3.34-5.18-3.88-4.15-3.09-4.15-3.09,2.28,4.59,4.13,6.1a3.7,3.7,0,0,1,1.3,3.65A19.35,19.35,0,0,1,105.51,48c-2.51-6-.47-7.46,1.3-10.28a38.09,38.09,0,0,1,5.57-6.25s-6.59,2.64-10.22,7.05-2.23,10.41-2.23,10.41-2-4.79-.37-8.18,3.16-7.61,3.16-7.61S95.33,39.39,94,44.84a17,17,0,0,0,.37,9.66s-2.46-4.78-2.6-8.73a23.35,23.35,0,0,1,.74-6.87S87,44.7,87,48.23s2.51,10.54,2.51,15.56Z"/><path class="bbdd0fb7-9b44-4f1f-a98f-346d9389204e" d="M550.29,86.13h-32s-10.49-3.22-10.49-27.95,6.46-38.84,9.68-42.86a46.33,46.33,0,0,1,7-6.92,151.65,151.65,0,0,0-5.37,17.83c-.84,3.53-1.3,14.42-1.3,14.42a11.86,11.86,0,0,1,2-5.4,32.53,32.53,0,0,1,5.85-5.79s-4,8.57-2.83,16,.31,9,.31,9,4.68-2.71,7.83-11.46-4.57-20-4.57-20,8.43,4.84,11,11.45S535,55.78,535,55.78s5.63-7.08,5.65-10.91-.49-10.12-.49-10.12,3.61,11.52,3.11,15.77a38,38,0,0,0,.64,9.82s.87.76,3.66-2.48,9.74-6.6,9.74-6.6-5,4.33-7,15.17A54.17,54.17,0,0,0,550.29,86.13Z"/><path class="bbdd0fb7-9b44-4f1f-a98f-346d9389204e" d="M53.19,72.19a62,62,0,0,1-5.75-14.27c-2.26-8.42-1.76-11,2.67-14.48C58.42,38.31,62,29.07,62,29.07a19.08,19.08,0,0,1-.56,6.73c-1,3.38-8.39,9.2-6.22,15.66A54,54,0,0,0,62,64.18s.83-7.29,4.73-10.88,4.66-7.6,2.87-11.09A41.73,41.73,0,0,1,66.74,34s2.54,2.55,6.16,5.54,2,7.39,1.84,9.24-3.69,9-3.69,9S73.66,55.7,75.36,50s14.17-9.84,14.17-9.84S79.11,47.81,77.36,56.79a45.59,45.59,0,0,0-.56,15.4Z"/><path class="e6ea3117-4c42-4f71-ae86-e34a6520304e" d="M380,66.33l-18-25L365,35.13c1.19,4.59,15,23.49,15,23.49s-8.49-28.27-11-31.57l4-1.84,2.57,5.51L380,20.08,384.43,23s-6.75,9.41-6.79,10.83,6.79,16.71,6.79,16.71l-3.49-16.89,3.49-.18,1.1,5.69V30l2.94.18V45.41L389.57,26l3.67.37c-.55,2.66,0,8.62,0,8.62s1.93-4.54,1.65-6.24h4.22s-3.3,14-3.3,14.5,3.3-7.71,3.3-7.71L403.89,37s-5.65,7.76-5.51,10.47,2.2,6.6,2.2,6.6l1.1-8.62h2.21L402.6,55.87l2.57-7.53,2.57.19L407,50.68l2.25,0-1.1,5.87s3.14-2.8,3.07-5.18-2.34-10.24-2.34-10.24l1.84-.91,4.22,12.48s.23-6.1-1.29-9.55l3.86.92V55.69l1.1-7.16,2.57,1.28a62.58,62.58,0,0,0-2.39,10.65l2.39-5.88,5,.19c-3.58,4.82-4,11.56-4,11.56Z"/><path class="fa6187a8-ba7c-46f3-8073-0d77e8b33cea" d="M427.41,72.3h93.67s.17.64-.53-3.65c-.33-5-6.1-9-6.1-9s1.33-4.75,1.15-6-.35-2.38-2.47-4a13.38,13.38,0,0,0-6.89-2.45c-1.58,0-2.81,1.43-3.61,2.45s-.28,3-.28,3S499,48,497.59,47.08a9,9,0,0,0-4.75-1.44,3.71,3.71,0,0,0-2.31,1.3,6.16,6.16,0,0,0,1.44-4c-.15-2.24-1.75-3.89-2.74-5.18s-4.13-3-7.06-3.17a8.83,8.83,0,0,0-7.2,3.31c-1.4,1.88-.58,4.9-.58,4.9A3.92,3.92,0,0,0,471.22,40a6.19,6.19,0,0,0-4.61,1.73A30.84,30.84,0,0,0,466,38c-.27-.81-1-2.11-4-2.59A9.29,9.29,0,0,0,457,36s-2.05-3.92-5.33-3.75-7.46,3.5-8.5,6a11.13,11.13,0,0,0-.72,5.05,5.67,5.67,0,0,0-4.53-.84c-2.38.73-4.1,1.52-5.13,3a8.24,8.24,0,0,0-1.29,2.88,4,4,0,0,0-4-2c-2.86.32-4.78,6.6-3.9,9.25a6,6,0,0,0,2.89,2.14l-2.89,4s-2,2.59-1.86,5a5.29,5.29,0,0,0,2.88,4.32A15.22,15.22,0,0,0,427.41,72.3Z"/><path class="ae603cde-1309-48a6-adcb-8a83ee3d6e45" d="M416.19,74.46h89.19s5.1-4.68,5.1-9.58-2.44-7.72-7.23-9.16-11.07,2.77-11.07,2.77a16.38,16.38,0,0,0-1.7-2.77c-1.33-1.86-5.33-3.88-7.24-3.88A6.5,6.5,0,0,0,478.13,54a4,4,0,0,0-.85,2.77,41.93,41.93,0,0,0-4.26-6c-1.6-1.55-5.37-2.88-7.88-2.13s-3,4-3,4-.69-3.56-2.76-5.1a10.76,10.76,0,0,0-8.52-1.92c-3.08.74-6.56,5-6.38,7.45a3.59,3.59,0,0,0,2.13,3.19,19.3,19.3,0,0,0-4.69.43,4,4,0,0,0-2.13,2.34s.08-3.09-.85-4.47-1.24-1.85-4.89-1.49-5.54,2.45-6,4.68,2.76,6,2.76,6a3.9,3.9,0,0,0-4.47-1.27c-3,.88-3.47,4.68-3.47,4.68a5.42,5.42,0,0,0-2.57-2.43,4.76,4.76,0,0,0-4.17.3c-1.07.74-2.77,2.41-2.56,4.68S416.19,74.46,416.19,74.46Z"/><path class="b7c3ce46-25bb-465f-a308-9539c045d7c6" d="M0,69.09a224,224,0,0,0,51.54-.25c22.38-2.71,24.87-6.48,48.5-10.1,29.12-4.47,53.06-3,71.5-1.77,27.17,1.82,26.88,4.52,51.28,5.81,23.25,1.23,37.89-.47,65.69-2.78,40.4-3.35,62.82-5.21,84.37-5.56,48.28-.77,60.79,6.56,160.93,16.42,19.68,1.94,37.9,3.28,47.5,4v51.28H0Z"/></g></svg>