<svg xmlns="http://www.w3.org/2000/svg" viewBox="0 0 794.27 268.66"><defs><style>.a4eef855-d63f-4c3c-a86b-1eff063d9785{fill:#deb47d;}.e586a56c-7aec-44d6-9421-19d849ef0ddf{fill:#9e681c;}.f5f39681-7dee-45d8-bda9-f5ed207647e8{fill:none;stroke:#9e681c;stroke-miterlimit:10;stroke-width:11px;}.bfb79463-6fc8-484b-a847-a64bcf301ef3{fill:#bc884b;}</style></defs><title>main-website</title><g id="e50b15d8-2752-475c-85c4-9486284b9141" data-name="Layer 2"><rect class="a4eef855-d63f-4c3c-a86b-1eff063d9785" x="57.71" y="97.5" width="680.38" height="171.16" rx="6.68"/><circle class="e586a56c-7aec-44d6-9421-19d849ef0ddf" cx="76.3" cy="116.09" r="8.59"/><circle class="e586a56c-7aec-44d6-9421-19d849ef0ddf" cx="76.3" cy="250.07" r="8.59"/><circle class="e586a56c-7aec-44d6-9421-19d849ef0ddf" cx="719.49" cy="116.09" r="8.59"/><circle class="e586a56c-7aec-44d6-9421-19d849ef0ddf" cx="719.49" cy="250.07" r="8.59"/><path class="f5f39681-7dee-45d8-bda9-f5ed207647e8" d="M87.54,97.5c0-10.14-4.08-18.35-9.1-18.35s-9.09,8.21-9.09,18.35,4.07,18.35,9.09,18.35"/><path class="f5f39681-7dee-45d8-bda9-f5ed207647e8" d="M730,97.5c0-10.14-4.07-18.35-9.1-18.35s-9.09,8.21-9.09,18.35,4.07,18.35,9.09,18.35"/></g><g id="f8af95c1-2e62-4e4b-b24a-502ef9554ca6" data-name="Layer 3"><line class="f5f39681-7dee-45d8-bda9-f5ed207647e8" x1="78.44" y1="76.95" x2="78.44" y2="35.51"/><line class="f5f39681-7dee-45d8-bda9-f5ed207647e8" x1="720.9" y1="76.95" x2="720.9" y2="35.51"/><polygon class="e586a56c-7aec-44d6-9421-19d849ef0ddf" points="794.27 35.51 289.01 35.51 0 35.51 0 0 794.27 0 794.27 35.51"/><path class="bfb79463-6fc8-484b-a847-a64bcf301ef3" d="M147.42,25.88a274.72,274.72,0,0,0,29.32-2.54c2.42-.33,4.82-.76,7.22-1.18l3.6-.66,3.59-.75c4.76-1.07,9.5-2.2,14.21-3.49,2.34-.67,4.71-1.27,7-2l1.75-.54.88-.27c.3-.09.6-.18.78-.25,1-.44,2.17-1,3.29-1.55a69.78,69.78,0,0,1,14.1-5,75.14,75.14,0,0,1,14.78-2c5,0,9.87-.11,14.8-.21l14.78-.39c4.93-.11,9.86-.16,14.79-.2,9.86-.09,19.73-.18,29.6.1s19.59.29,29.4,0S371,4,380.81,3.15l.06.39a256.81,256.81,0,0,1-59,5.71l-29.52-.61c-4.93-.09-9.86-.18-14.79-.35s-9.85-.41-14.78-.63l-7.4-.35C252.9,7.19,250.43,7,248,7A56.61,56.61,0,0,0,233.52,8.9a52,52,0,0,0-6.9,2.38,62,62,0,0,0-6.5,3.3c-1.07.62-2.05,1.25-3.25,1.89a9.07,9.07,0,0,1-1,.4l-.86.35-1.73.69c-1.15.48-2.32.9-3.49,1.32s-2.34.86-3.53,1.22a138,138,0,0,1-29.2,6,139.83,139.83,0,0,1-29.71-.13Z"/><path class="bfb79463-6fc8-484b-a847-a64bcf301ef3" d="M262.26,15.65a549.24,549.24,0,0,0,66.55,3.88c2.77,0,5.54-.09,8.32-.14s5.54-.19,8.31-.32c5.54-.26,11.07-.63,16.58-1.14s11-1.12,16.52-1.88,11-1.56,16.54-2.29c11.08-1.41,22.21-2.46,33.32-3.32C434,10,439.52,9.6,445.09,9.28s11.14-.63,16.71-.83C473,8,484.11,7.93,495.27,8.29c5.57.16,11.16.49,16.73,1.08s11.08,1.36,16.6,2.12c22.08,3,44.16,5.93,66.22,9,11,1.52,22.06,3,33.1,4.35,5.52.65,11,1.3,16.55,1.86s11,1,16.58,1.42c11.07.87,22.16,1.34,33.26,1.65s22.22.3,33.33,0c5.56-.16,11.1-.29,16.64-.58l16.65-1.32,16.65-1.25,16.67-1.17,0,.4L777.7,28l-16.6,2-16.62,1.91c-5.57.49-11.16.84-16.73,1.1-11.15.51-22.32.77-33.5.7-5.59,0-11.17-.16-16.76-.38s-11.16-.5-16.74-.87c-22.34-1.46-44.44-4.89-66.47-8.17s-44-6.83-66-10.58c-5.49-.9-11-1.82-16.48-2.57s-11-1.2-16.58-1.43c-11.11-.53-22.24-.45-33.35.09-5.56.28-11.1.69-16.65,1.18s-11.07,1.11-16.6,1.74q-16.59,1.85-33.06,4.4c-5.5.81-11,1.76-16.52,2.52s-11.12,1.4-16.69,1.87-11.17.8-16.76,1c-2.8.11-5.6.13-8.39.19s-5.59,0-8.39,0a404.79,404.79,0,0,1-66.6-6.58Z"/><path class="bfb79463-6fc8-484b-a847-a64bcf301ef3" d="M-.12,22.51a79.18,79.18,0,0,1,9.19-7.33A61.09,61.09,0,0,1,19.42,9.32,65.94,65.94,0,0,1,30.77,5.64,61,61,0,0,1,42.59,4.05a56.49,56.49,0,0,1,23.28,4.2c3.68,1.48,7,3.56,10.52,5.17a49.2,49.2,0,0,0,10.92,3.52c7.52,1.63,15.09,1.39,22.74.6,3.83-.4,7.68-.91,11.54-1.41s7.74-.89,11.63-1.27c7.77-.67,15.56-1.16,23.37-1.34s15.6-.15,23.4.23l0,.4c-15.51,1.81-31,3.26-46.38,5-7.72.79-15.42,1.62-23.26,2.19a81.31,81.31,0,0,1-11.89.07,53.84,53.84,0,0,1-11.71-2.3c-1.9-.55-3.77-1.21-5.61-1.94s-3.62-1.59-5.37-2.48c-3.5-1.81-6.8-3.85-10.39-5.18A41,41,0,0,0,54.2,7.11a67.79,67.79,0,0,0-11.4.26A109.71,109.71,0,0,0,31.54,9.1l-2.79.63c-.91.25-1.84.47-2.75.74-1.83.52-3.65,1.07-5.43,1.73s-3.52,1.37-5.25,2.19-3.43,1.7-5.14,2.6C6.79,18.83,3.44,20.79.12,22.83Z"/><path class="bfb79463-6fc8-484b-a847-a64bcf301ef3" d="M22.48,20a41,41,0,0,1,10-4.23c.87-.26,1.75-.47,2.65-.65s1.78-.38,2.69-.49a25,25,0,0,1,2.73-.3,25.19,25.19,0,0,1,2.75,0,60.56,60.56,0,0,1,10.79,1.75q5.28,1.14,10.48,2.72c1.73.53,3.44,1.09,5.11,1.7l4.94,1.84c3.28,1.19,6.59,2.11,9.92,3a188.81,188.81,0,0,0,20.61,4.18v.4a46.65,46.65,0,0,1-10.81.91,55.13,55.13,0,0,1-10.84-1.34,52.94,52.94,0,0,1-10.32-3.64c-1.65-.76-3.26-1.55-4.83-2.41s-3.08-1.79-4.63-2.61A35.57,35.57,0,0,0,59,18.59a27.08,27.08,0,0,0-5.09-1.27,40.5,40.5,0,0,0-10.44.32l-5.14.54c-.86.08-1.72.19-2.58.31s-1.72.23-2.58.35c-3.46.46-6.9,1.12-10.51,1.56Z"/><path class="bfb79463-6fc8-484b-a847-a64bcf301ef3" d="M196.18,35.35a41.55,41.55,0,0,1,10.07-7.63A50.1,50.1,0,0,1,212,25,39.09,39.09,0,0,1,218,23.05a96,96,0,0,1,12.54-1.53c4.16-.34,8.28-.87,12.46-1.25A73.51,73.51,0,0,1,255.62,20a79.47,79.47,0,0,1,12.54,1.57c1,.22,2.07.46,3.09.76s2.05.6,3.06.94,2,.71,3,1.16c.51.24,1,.43,1.51.73a11.81,11.81,0,0,1,1.55.95A3.81,3.81,0,0,1,281.94,28a3,3,0,0,1,.08,1.47,3.48,3.48,0,0,1-.44,1.14A8,8,0,0,1,279,33.06a23.77,23.77,0,0,1-5.83,2.63l-.17-.36a44.55,44.55,0,0,0,4.73-3.86,6.92,6.92,0,0,0,1.53-2.08c.11-.31,0-.42,0-.39s-.15-.11-.57-.3a7.47,7.47,0,0,0-1.18-.5c-.41-.18-.92-.29-1.37-.45-.92-.3-1.9-.54-2.86-.78-2-.45-3.92-.88-5.92-1.24-4-.74-8-1.46-12-2l-3-.36c-1-.11-2-.19-3-.32-2-.2-4.08-.46-6.13-.6a52.36,52.36,0,0,0-12.32.34A62.32,62.32,0,0,0,219,26.25c-1.9.71-3.81,1.37-5.71,2.06-.95.36-1.9.68-2.84,1.07s-1.88.74-2.82,1.13c-3.76,1.55-7.41,3.33-11.19,5.16Z"/><path class="bfb79463-6fc8-484b-a847-a64bcf301ef3" d="M106.83,6.75a67.71,67.71,0,0,1,12.75-3.23c2.17-.35,4.35-.64,6.54-.79a49.87,49.87,0,0,1,6.58-.17c4.41.18,8.76.93,13.1,1.38s8.69.83,13,1.17c2.18.19,4.35.33,6.51.55l6.43.66c4.28.42,8.56.66,12.83.95,8.54.62,17.12.82,25.87,1.18l.05.4a81.48,81.48,0,0,1-13,2.26,98.1,98.1,0,0,1-13.17.42,102.53,102.53,0,0,1-13.1-1.46c-2.16-.37-4.32-.76-6.45-1.24s-4.24-1-6.35-1.56a62.34,62.34,0,0,0-12.79-2,101.45,101.45,0,0,0-12.93.67l-3.21.22-3.21.16c-1.08,0-2.15.09-3.22.16s-2.15.09-3.22.16c-4.3.21-8.61.5-13,.54Z"/><path class="bfb79463-6fc8-484b-a847-a64bcf301ef3" d="M118.05,31.56a89,89,0,0,1,11-1c1.83-.07,3.65-.12,5.47-.12s3.65,0,5.47.19c3.64.3,7.29.95,10.94,1.06a70.14,70.14,0,0,0,10.93-.59c1.82-.21,3.63-.48,5.44-.67s3.63-.36,5.43-.54c3.61-.35,7.19-.81,10.76-1.18l5.37-.57,2.68-.31c.87-.11,1.86-.21,2.64-.33a50.28,50.28,0,0,0,5.13-1.26,38.65,38.65,0,0,1,5.42-1.32l.1.38c-3.15,1.83-6.14,3.94-9.89,5.26-1,.31-1.82.53-2.74.77l-2.71.64c-1.81.4-3.64.72-5.48,1a91.3,91.3,0,0,1-11.07.72c-1.84,0-3.68,0-5.52,0s-3.67-.22-5.51-.35a93.7,93.7,0,0,0-11-.3c-3.65.13-7.31.76-11,1a52.92,52.92,0,0,1-5.49,0c-1.83-.06-3.65-.17-5.48-.33A74.3,74.3,0,0,1,118,32Z"/><path class="bfb79463-6fc8-484b-a847-a64bcf301ef3" d="M213.48,35.42a34.25,34.25,0,0,1,6.26-4.2,35.21,35.21,0,0,1,7-2.85c2.44-.65,4.95-1,7.41-1.38s4.92-.85,7.4-1.24a45,45,0,0,1,7.52-.63,33.87,33.87,0,0,1,7.61.7,12.76,12.76,0,0,1,3.77,1.47A3.81,3.81,0,0,1,262,29.13a2.29,2.29,0,0,1,.06,1.39,3.48,3.48,0,0,1-.5,1.1,6.57,6.57,0,0,1-1.43,1.49,13.79,13.79,0,0,1-1.59,1.11,26.77,26.77,0,0,1-3.39,1.69l-.1-.17c1-.77,2-1.53,2.88-2.35a10.25,10.25,0,0,0,2.28-2.58c.23-.46.27-.83.12-1a2.07,2.07,0,0,0-.93-.81,12.17,12.17,0,0,0-3.22-1.05A48.69,48.69,0,0,0,249,27c-2.44-.11-4.9-.17-7.38-.16a35.84,35.84,0,0,0-7.37.79,48.94,48.94,0,0,0-7,2.33c-2.29.87-4.58,1.71-6.85,2.66s-4.51,2-6.81,3Z"/><path class="bfb79463-6fc8-484b-a847-a64bcf301ef3" d="M68.94,30c-1.43-.55-2.78-1.16-4.15-1.71s-2.7-1.09-4.05-1.55-2.7-.88-4.06-1.24-2.72-.65-4.1-1A23.62,23.62,0,0,0,44,23.92a31.67,31.67,0,0,0-8.39,2.86c-1.37.62-2.76,1.26-4.19,1.79A44,44,0,0,1,27,29.9a43.9,43.9,0,0,1-9.13,1.38,46.61,46.61,0,0,1-9.16-.72A35.6,35.6,0,0,1,0,27.89L0,27.5c3.05-.05,6,0,8.92-.08s5.86-.19,8.72-.41,5.74-.39,8.6-.81c1.43-.22,2.86-.48,4.3-.73L35,24.69c2.95-.53,5.85-1.31,8.8-2A34,34,0,0,1,53,21.27a21.64,21.64,0,0,1,9,2.65,24.33,24.33,0,0,1,7.18,5.79Z"/><path class="bfb79463-6fc8-484b-a847-a64bcf301ef3" d="M225.43,35.42a22,22,0,0,1,4.19-2.66,24.55,24.55,0,0,1,4.59-1.83c1.59-.43,3.25-.62,4.84-1s3.15-.88,4.77-1.32a22.31,22.31,0,0,1,5-.7,11.71,11.71,0,0,1,2.66.15,3.29,3.29,0,0,1,.84.28,2.14,2.14,0,0,1,.55.44,1.42,1.42,0,0,1,.34.94,1.89,1.89,0,0,1,0,.44c0,.09-.07.19-.11.29a1.85,1.85,0,0,1-.25.45,4.12,4.12,0,0,1-.51.62,15.21,15.21,0,0,1-4.42,2.69,20.73,20.73,0,0,1-4.79,1.41l-.07-.19c1.4-.87,2.78-1.73,4.12-2.61A24.52,24.52,0,0,0,250.76,30c.07-.12.22-.24.26-.32s.07-.1,0-.08h0a.37.37,0,0,0,0,.14.89.89,0,0,0,.16.38l.07.06a1.85,1.85,0,0,0-.32-.12,11.62,11.62,0,0,0-2.19-.29c-.79,0-1.59-.05-2.4-.08s-1.6-.07-2.39,0a17.3,17.3,0,0,0-4.76.87,43.24,43.24,0,0,0-4.47,2c-1.48.64-3,1.16-4.54,1.69s-3.08,1-4.7,1.41Z"/><path class="bfb79463-6fc8-484b-a847-a64bcf301ef3" d="M289,35.31c11.38-2.22,22.81-4.05,34.25-5.75l8.58-1.23,8.6-1.16Q349,26,357.63,25.09l17.27-1.66,8.64-.82,8.63-.93q8.61-1,17.2-2.26c5.72-.8,11.43-1.77,17.15-2.63S438,15,443.74,14.28s11.63-1,17.4-1.28,11.51-.56,17.28-1c2.88-.2,5.77-.38,8.7-.49a73.32,73.32,0,0,1,8.89.16c3,.25,5.88.62,8.76,1.07s5.75.92,8.6,1.46l8.57,1.63a53.94,53.94,0,0,1,16.43,6.86A33,33,0,0,1,542,25.36,11.55,11.55,0,0,1,545.1,29a3.66,3.66,0,0,1,.33,1.47,2.39,2.39,0,0,1-.17.87,2.6,2.6,0,0,1-.44.72,6.54,6.54,0,0,1-2,1.46A18.21,18.21,0,0,1,538.51,35a36.84,36.84,0,0,1-8.74.73v-.4a42,42,0,0,0,8.42-1.57A17.06,17.06,0,0,0,542,32.06a5.52,5.52,0,0,0,1.39-1.16c.13-.23.12-.2.12-.4a1.74,1.74,0,0,0-.21-.62,9.88,9.88,0,0,0-2.7-2.7A31.74,31.74,0,0,0,537,25a58.45,58.45,0,0,0-7.72-3.42,48.19,48.19,0,0,0-8.07-2.18l-8.52-1.32c-5.7-.82-11.4-1.75-17-2.1a79.25,79.25,0,0,0-8.45-.14l-8.61.39c-5.78.27-11.61.44-17.38.56s-11.51.27-17.23.71-11.49.94-17.24,1.5c-11.52,1.11-23,2.36-34.47,4l-8.58,1.28-8.56,1.4-17.14,2.75q-8.58,1.27-17.19,2.3l-8.62,1-8.62.94c-11.51,1.2-23,2.36-34.58,3.07Z"/><path class="bfb79463-6fc8-484b-a847-a64bcf301ef3" d="M375.14,35.41c6.57-1.64,13.21-3,19.86-4.24s13.35-2.33,20.07-3.18,13.47-1.4,20.2-2.09,13.47-1.38,20.23-1.9,13.54-.81,20.32-.82,13.56.19,20.29.3a65.45,65.45,0,0,1,10.24.7,35.54,35.54,0,0,1,10,2.9,12.72,12.72,0,0,1,2.29,1.41,5.37,5.37,0,0,1,1.77,2.28,2.6,2.6,0,0,1,.07,1.64,2.65,2.65,0,0,1-1,1.29,7.77,7.77,0,0,1-2.5,1.1,26.18,26.18,0,0,1-5.09.75,48.24,48.24,0,0,1-5.1.06v-.2a42.81,42.81,0,0,0,9.9-1.57,7.07,7.07,0,0,0,2.07-1.05,1.19,1.19,0,0,0,.39-1.56,4.09,4.09,0,0,0-1.43-1.58,12.56,12.56,0,0,0-2.07-1.16,34.26,34.26,0,0,0-9.55-2.4c-1.65-.19-3.31-.34-5-.41s-3.31-.06-5-.06c-6.8-.07-13.53-.45-20.28-.56s-13.5-.14-20.25,0-13.51.64-20.22,1.45-13.37,2-20,3.1q-20,3.13-40.12,6Z"/><path class="bfb79463-6fc8-484b-a847-a64bcf301ef3" d="M429.7,35.41a65.09,65.09,0,0,1,9.59-2.72,96,96,0,0,1,9.82-1.56c3.31-.31,6.63-.4,9.92-.7s6.58-.72,9.86-1.16,6.58-.85,9.9-1c1.67-.11,3.33-.17,5-.17s3.33.12,5,.26a43.61,43.61,0,0,1,5,.71,10.74,10.74,0,0,1,2.6.87,2.48,2.48,0,0,1,.74.59,1.4,1.4,0,0,1,.32.67,1.74,1.74,0,0,1-.09.79,3.38,3.38,0,0,1-.33.48l-.32.29a5.17,5.17,0,0,1-.63.41,22.18,22.18,0,0,1-4.88,1.58c-1.63.38-3.26.66-4.91.89l0-.2c1.57-.55,3.13-1.09,4.67-1.66a24.19,24.19,0,0,0,4.36-2,4.89,4.89,0,0,0,.39-.3l.13-.13s0,0,0,0,0,.31,0,.31a2.44,2.44,0,0,0-.25-.14,9.15,9.15,0,0,0-2.14-.54c-1.57-.24-3.19-.4-4.82-.5s-3.26-.2-4.9-.3-3.24-.07-4.88,0l-9.89.24a99,99,0,0,0-9.88.72c-3.27.44-6.52,1.11-9.76,1.7s-6.52,1-9.78,1.43l-9.81,1.4Z"/><path class="bfb79463-6fc8-484b-a847-a64bcf301ef3" d="M513.9-.19C525.48,2.1,537,4.5,548.56,6.67l8.67,1.62c2.89.54,5.78,1.07,8.68,1.57,5.8,1,11.57,2.06,17.36,3,2.9.5,5.78,1.1,8.68,1.58L600.66,16l8.72,1.36c2.91.45,5.84.78,8.76,1.14,11.69,1.37,23.46,2.05,35.23,2.32,5.88.14,11.77.16,17.65.19s11.75,0,17.63,0,11.75-.21,17.62-.44,11.74-.44,17.61-.75c23.47-1.06,46.89-3.06,70.36-5.5l.07.4A471.06,471.06,0,0,1,724.1,24c-11.8.68-23.63.84-35.45.69-5.91-.07-11.82-.21-17.72-.52s-11.79-.74-17.68-1.21c-11.77-1-23.5-2.15-35.25-3.22l-17.63-1.59c-5.87-.6-11.75-1.2-17.61-2-11.71-1.61-23.33-3.82-34.84-6.48S525,4,513.8.19Z"/><path class="bfb79463-6fc8-484b-a847-a64bcf301ef3" d="M598,7.33c13.6,1.26,27.06,2.79,40.55,4,6.72.68,13.47,1.46,20.27,1.87a192.8,192.8,0,0,0,20.4,0c3.4-.18,6.8-.37,10.19-.6s6.8-.47,10.19-.68l10.2-.5,5.08-.25a36.87,36.87,0,0,0,4.8-.63c6.32-1.15,12.62-3.84,19.38-5.51a66.27,66.27,0,0,1,20.57-1.95l0,.4a118,118,0,0,0-19.59,4.92c-3.17,1.07-6.28,2.35-9.52,3.51a54,54,0,0,1-10.15,2.8,41.8,41.8,0,0,1-5.36.44l-5.12.06c-3.41.05-6.81.07-10.22.06-6.82-.06-13.64-.34-20.45-.51s-13.63-.15-20.45,0-13.68.48-20.53,0a201.4,201.4,0,0,1-40.34-7.15Z"/></g></svg>