<svg xmlns="http://www.w3.org/2000/svg" viewBox="0 0 4283.62 159.92"><defs><style>.waves-a{fill:#b2e1ff;}.waves-b{fill:#97c3ff;}</style></defs><rect class="waves-a" width="4283.62" height="159.92"/><path class="waves-b" d="M2141.81,159.92H0V104.16S158.41,29.83,194.26,29.83s70.22,58.6,136.81,59.27S505.41,20.79,634.64,20.79,750.16,94.12,812.16,94.12s271.92-82.37,410.2-82.37,109.21,79.36,191.25,79.36,171.76-79.36,331.45-79.36,136.09,85.38,229.38,85.38c93.67,0,97.14-69.34,172.93-69.34s104.08,67.7,167.75,67.7S2401,30.32,2467.2,30.32s84,68.29,150.57,69,152.73-78.49,220.09-78.49,102.77,73.33,236.92,73.33,151.11-82.37,289.39-82.37,109.21,79.36,191.25,79.36,171.76-79.36,331.45-79.36S4023,97.13,4116.25,97.13s167.37-53.24,167.37-53.24v116H2141.81"/></svg>