<svg id="Layer_3" data-name="Layer 3" xmlns="http://www.w3.org/2000/svg" viewBox="0 0 601 571"><defs><style>.cls-1{fill:#efd61b;}.cls-2{fill:#f0d83b;}.cls-3{fill:#f0e059;}.cls-4{fill:#ecc93b;}.cls-5{fill:#efc31d;}.cls-6{fill:#e5b402;}.cls-7{fill:#db9905;}.cls-8{fill:#efc90c;}.cls-9{fill:#ce9005;}.cls-10{fill:#d89309;}.cls-11{fill:#ebc000;}.cls-12{fill:#ddab14;}.cls-13{fill:#f9cb0b;}.cls-14{fill:#f7d611;}.cls-15{fill:#f9e462;}.cls-16{fill:#f0dc3b;}.cls-17{fill:#e6dc11;}.cls-18{fill:#e4ca0c;}.cls-19{fill:#ef834d;}.cls-20{fill:#eace24;}.cls-21{fill:#edb835;}.cls-22{fill:#e04725;}.cls-23{fill:#ebb201;}.cls-24{fill:#e2ae1b;}.cls-25{fill:#f28f56;}.cls-26{fill:#ed7a30;}.cls-27{fill:#d34f20;}.cls-28{fill:#e5826c;}.cls-29{fill:#ed6f38;}.cls-30{fill:#bc2617;}.cls-31{fill:#e55928;}.cls-32{fill:#cc4122;}.cls-33{fill:#ed8c72;}.cls-34{fill:#e5654c;}.cls-35{fill:#e8795b;}.cls-36{fill:#efd330;}.cls-37{fill:#f7f7f7;}.cls-38{fill:#545453;}.cls-39{fill:#5e5e5e;}.cls-40{fill:#b8b5b5;}.cls-41{fill:#dbdada;}.cls-42{fill:#c9c9c9;}.cls-43{fill:#9b9b9b;}.cls-44{fill:#393434;}.cls-45{fill:#282727;}.cls-46{fill:#212121;}.cls-47{fill:#efca1b;}.cls-48{fill:#e2c41b;}.cls-49{fill:#f7e038;}.cls-50{fill:#f9e48a;}.cls-51{fill:#f3e662;}.cls-52{fill:#f9c60b;}.cls-53{fill:#f7db52;}.cls-54{fill:#f7db31;}.cls-55{fill:#f0dc4a;}.cls-56{fill:#edc93a;}.cls-57{fill:#c99217;}.cls-58{fill:#eaba00;}.cls-59{fill:#ffe12e;}.cls-60{fill:#f2ca03;}.cls-61{fill:#f2c603;}.cls-62{fill:#f2d02e;}.cls-63{fill:#e8cf5c;}.cls-64{fill:#efca0c;}.cls-65{fill:#e1a103;}.cls-66{fill:#e1b440;}.cls-67{fill:#e5c403;}.cls-68{fill:#edbe3a;}.cls-69{fill:#f7d831;}.cls-70{fill:#f7e743;}.cls-71{fill:#e5b802;}.cls-72{fill:#f9ca10;}.cls-73{fill:#ead200;}.cls-74{fill:#e5ab02;}.cls-75{fill:#eac41b;}.cls-76{fill:#f4c532;}.cls-77{fill:#f7cd4a;}.cls-78{fill:#ead400;}.cls-79{fill:#d8a509;}.cls-80{fill:#d69503;}.cls-81{fill:#e09c00;}.cls-82{fill:#eadf46;}.cls-83{fill:#ddbe26;}.cls-84{fill:#efba35;}.cls-85{fill:#e2bc36;}.cls-86{fill:#efaa37;}.cls-87{fill:#f2c819;}.cls-88{fill:#514a4a;}.cls-89{fill:#d19b11;}.cls-90{fill:#efc21f;}</style></defs><polygon class="cls-1" points="180 81 177 106 295.73 63.91 276 0 227.68 40.5 180 81"/><polygon class="cls-2" points="227.68 40.5 202 0 145 23 227.68 40.5"/><polygon class="cls-3" points="227.68 40.5 145 23 168 76 180 81 227.68 40.5"/><polygon class="cls-4" points="202 0 276 0 227.68 40.5 202 0"/><polygon class="cls-5" points="344 32 380.42 76.91 295.73 63.91 276 0 344 32"/><polygon class="cls-6" points="380.42 76.91 341.48 159.12 272.54 142.23 295.73 63.91 380.42 76.91"/><polygon class="cls-7" points="380.42 76.91 393 124 387 193 341.48 159.12 380.42 76.91"/><polygon class="cls-8" points="272.54 142.37 295.73 63.91 177 106.13 272.54 142.37"/><polygon class="cls-9" points="387 193 365 231 332 267 256.26 208.1 387 193"/><polygon class="cls-10" points="256.26 208.1 332 267 277 278 256.26 208.1 256.26 208.1"/><polygon class="cls-11" points="213 185 272.54 142.23 272.54 142.23 256.26 208.1 213 185"/><polygon class="cls-12" points="272.54 142.23 341.48 159.12 256.26 208.1 272.54 142.23 272.54 142.23"/><polygon class="cls-13" points="213 185 180 203 213 282 256.26 208.1 213 185"/><polygon class="cls-14" points="213 185 154 135 154 176 180 203 213 185"/><polygon class="cls-15" points="158 81 158 81 168 76 145 23 102 69 158 81"/><polygon class="cls-16" points="158 81 102 69 89 103 158 81"/><polygon class="cls-17" points="147 98 144 124 89 103 158 81 147 98"/><polygon class="cls-18" points="144 124 104 144 91 120 89 103 144 124"/><polygon class="cls-19" points="91 120 104 144 52 113 89 103 91 120"/><polygon class="cls-20" points="132 171 104 144 144 124 154 135 154 176 132 171"/><polygon class="cls-21" points="154 176 180 203 142 200 132 171 154 176"/><polygon class="cls-22" points="142 200 132 221 107 178 132 171 142 200"/><polygon class="cls-8" points="180 203 149 273 125 256 132 221 142 200 180 203"/><polygon class="cls-1" points="213 282 149 273 180 203 213 282"/><polygon class="cls-23" points="213 282 256.26 208.1 277 278 213 282"/><polygon class="cls-24" points="125 256 132 221 104 230 125 256"/><polygon class="cls-25" points="132 221 122.61 204.85 101.92 210.5 79 210.5 68 234 104 230 132 221"/><polygon class="cls-26" points="101.92 210.5 122.61 204.85 100.4 196.31 79 210.5 101.92 210.5"/><polygon class="cls-27" points="100.4 196.31 79 210.5 71 185 100.4 196.31"/><polygon class="cls-28" points="71 185 57 195 46 225 79 210.5 71 185"/><polygon class="cls-29" points="68 234 79 210.5 46 225 68 234"/><polygon class="cls-30" points="71 185 65 150.08 27 156 71 185"/><polygon class="cls-31" points="65 150.08 46.7 128.5 52 113 104 144 65 150.08"/><polygon class="cls-32" points="65 150.08 46.7 128.5 26 116 0 119 27 156 65 150.08"/><polygon class="cls-33" points="26 116 0 119 8 103 27 103 52 113 46.7 128.5 26 116"/><polygon class="cls-34" points="107 178 87.43 157.72 65 150.08 71 185 122.61 204.85 107 178"/><polygon class="cls-35" points="65 150.08 87.43 157.72 107 178 132 171 104 144 65 150.08"/><polygon class="cls-36" points="177 106 272.54 142.23 213 185 154 135 167 126 177 106"/><polygon class="cls-37" points="168 76 164.1 87.23 174.59 83.87 168 76"/><polygon class="cls-38" points="174.59 83.87 180 81 168 76 174.59 83.87"/><polygon class="cls-39" points="174.59 83.87 171.75 92.12 177 106 180 81 174.59 83.87"/><polygon class="cls-40" points="171.75 92.12 174.59 83.87 164.1 87.23 161.71 98.46 171.75 92.12"/><polygon class="cls-41" points="164.1 87.23 168 76 158 81 164.1 87.23"/><polygon class="cls-42" points="164.1 87.23 156.21 93.82 158 81 164.1 87.23"/><polygon class="cls-43" points="164.1 87.23 156.21 93.82 161.71 98.46 164.1 87.23"/><polygon class="cls-38" points="158 81 156.21 93.82 147 98 158 81"/><polygon class="cls-44" points="156.21 93.82 158 113.81 147 98 156.21 93.82"/><polygon class="cls-45" points="158 113.81 171.75 92.12 177 106 167 126 158 113.81"/><polygon class="cls-46" points="158 113.81 147 98 144 124 158 113.81"/><polygon points="158 113.81 144 124 154 135 167 126 158 113.81"/><polygon class="cls-47" points="213 282 190 310.86 98 291 149 273 213 282"/><polygon class="cls-48" points="213 282 277 278 300.5 304.04 190 310.86 213 282"/><polygon class="cls-49" points="190 310.86 98 291 110.99 342.32 213 379.45 190 310.86"/><polygon class="cls-8" points="190 310.86 300.5 304.04 245.26 358.23 213 379.45 190 310.86"/><polygon class="cls-50" points="110.99 342.32 98 291 51 335 82.19 397.39 110.99 342.32"/><polygon class="cls-14" points="110.99 342.32 82.19 397.39 136.69 444.06 213 379.45 110.99 342.32"/><polygon class="cls-8" points="213 379.45 200.17 420 206.61 459.79 136.69 444.06 213 379.45"/><polygon class="cls-51" points="213 379.45 245.26 358.23 298.59 374.48 239.58 410.53 213 379.45"/><polygon class="cls-52" points="245.26 358.23 300.5 304.04 365.77 318.44 293 354.44 245.26 358.23"/><polygon class="cls-53" points="239.58 410.53 243.75 452.59 206.61 459.79 200.17 420 213 379.45 239.58 410.53"/><polygon class="cls-54" points="239.58 410.53 282.53 438.32 377.52 401.05 298.59 374.48 239.58 410.53"/><polygon class="cls-55" points="293 354.44 298.59 374.48 245.26 358.23 293 354.44"/><polygon class="cls-56" points="300.5 304.04 277 278 332 267 453.68 304.72 365.77 318.44 300.5 304.04"/><polygon class="cls-57" points="427 263 453.68 304.72 332 267 427 263"/><polygon class="cls-58" points="453.68 304.72 435.5 384 365.77 318.44 453.68 304.72"/><polygon class="cls-24" points="435.5 384 393 382.11 354.02 368.84 293 354.44 365.77 318.44 435.5 384"/><polygon class="cls-59" points="298.59 374.48 293 354.44 354.02 368.84 377.52 401.05 298.59 374.48"/><polygon class="cls-60" points="282.53 438.32 260.43 478.8 252.19 465.85 243.75 452.59 239.58 410.53 282.53 438.32"/><polygon class="cls-61" points="206.61 459.79 238.03 498.97 183.75 523.07 119 509.56 206.61 459.79"/><polygon class="cls-62" points="206.61 459.79 119 509.56 136.69 444.06 206.61 459.79"/><polygon class="cls-63" points="206.61 459.79 243.75 452.59 260.43 478.8 238.03 498.97 206.61 459.79"/><polygon class="cls-64" points="344.17 520.04 282.53 438.32 377.52 401.05 350.1 454.12 344.17 520.04"/><polygon class="cls-65" points="272.93 498.44 264.21 520.04 316.88 537.1 308.55 517.77 272.93 498.44"/><polygon class="cls-66" points="264.21 520.04 264.21 520.04 238.03 498.97 260.43 478.8 272.93 498.44 264.21 520.04"/><polygon class="cls-60" points="316.88 537.1 277 571 238.03 498.97 264.21 520.04 316.88 537.1"/><polygon class="cls-67" points="183.75 523.07 170 567 277 571 238.03 498.97 183.75 523.07"/><polygon class="cls-68" points="183.75 523.07 119 509.56 90 539 170 567 183.75 523.07"/><polygon class="cls-60" points="119 509.56 86 457.52 136.69 444.06 119 509.56"/><polygon class="cls-69" points="136.69 444.06 82.19 397.39 86 457.52 136.69 444.06"/><polygon class="cls-70" points="82.19 397.39 51 335 22 403 86 457.52 82.19 397.39"/><polygon class="cls-16" points="22 403 33 482 86 457.52 22 403"/><polygon class="cls-14" points="86 457.52 33 482 90 539 119 509.56 86 457.52"/><polygon class="cls-61" points="427 263 504 196 487.79 260.84 427 263"/><polygon class="cls-71" points="427 263 453.68 304.72 524.55 310.86 487.79 260.84 427 263"/><polygon class="cls-14" points="487.79 260.84 504 196 534 195 557 215 562 263 524.55 310.86 487.79 260.84"/><polygon class="cls-72" points="562 263 587 320 562 356.72 524.55 310.86 562 263"/><polygon class="cls-73" points="524.55 310.86 489.68 354.44 476.8 367.33 435.5 384 453.68 304.72 524.55 310.86"/><polygon class="cls-74" points="562 356.72 587 320 601 394 548.04 420 562 356.72"/><polygon class="cls-58" points="562 356.72 548.04 420 493.85 435.54 504 385.77 562 356.72"/><polygon class="cls-75" points="562 356.72 504 385.77 489.68 354.44 524.55 310.86 562 356.72"/><polygon class="cls-57" points="489.68 354.44 466.19 423.16 493.85 435.54 504 385.77 489.68 354.44"/><polygon class="cls-76" points="489.68 354.44 466.19 423.16 435.5 384 476.8 367.33 489.68 354.44"/><polygon class="cls-77" points="435.5 384 393 382.11 354.02 368.84 377.52 401.05 466.19 423.16 435.5 384"/><polygon class="cls-78" points="377.52 401.05 350.1 454.12 344.17 520.04 405.43 446.53 377.52 401.05"/><polygon class="cls-79" points="359.3 501.89 419.96 502.61 406.69 523.07 359.3 501.89"/><polygon class="cls-80" points="344.17 520.04 308.55 517.77 316.88 537.1 375.24 540.13 344.17 520.04"/><polygon class="cls-21" points="316.88 537.1 375.24 540.13 360.65 564.95 277 571 316.88 537.1"/><polygon class="cls-24" points="360.65 564.95 375.24 540.13 430 557 360.65 564.95"/><polygon class="cls-81" points="375.24 540.13 344.17 520.04 359.3 501.89 406.69 523.07 375.24 540.13"/><polygon class="cls-10" points="406.76 523.07 419.96 502.61 482.11 500.72 451.03 518.9 406.76 523.07"/><polygon class="cls-21" points="406.69 523.07 451.03 518.9 430 557 375.24 540.13 406.69 523.07"/><polygon class="cls-82" points="419.96 502.61 405.43 446.53 359.3 501.89 419.96 502.61"/><polygon class="cls-48" points="423.75 462.06 466.19 423.16 377.52 401.05 405.43 446.53 423.75 462.06"/><polygon class="cls-65" points="466.19 423.16 423.75 462.06 455.96 459.41 493.85 435.54 466.19 423.16"/><polygon class="cls-57" points="493.1 463.58 462.02 492.76 458.26 472.06 493.1 463.58"/><polygon class="cls-83" points="493.85 435.54 538.19 479.12 493.1 463.58 455.96 459.41 493.85 435.54"/><polygon class="cls-84" points="423.75 462.06 405.43 446.53 419.96 502.61 482.11 500.72 462.02 492.76 458.26 472.06 423.75 462.06"/><polygon class="cls-85" points="451.03 518.9 482.11 500.72 517 534 430 557 451.03 518.9"/><polygon class="cls-24" points="482.11 500.72 538.19 479.12 576 479 517 534 482.11 500.72"/><polygon class="cls-48" points="482.11 500.72 462.02 492.76 493.1 463.58 538.19 479.12 482.11 500.72"/><polygon class="cls-24" points="493.85 435.54 548.04 420 538.19 479.12 493.85 435.54"/><polygon class="cls-86" points="548.04 420 538.19 479.12 576 479 548.04 420"/><polygon class="cls-65" points="548.04 420 601 394 576 479 548.04 420"/><polygon class="cls-87" points="455.96 459.41 493.1 463.58 458.26 472.06 423.75 462.06 455.96 459.41"/><polygon class="cls-88" points="161.71 98.46 171.75 92.12 158 113.81 156.21 93.82 161.71 98.46"/><polygon class="cls-89" points="341.48 159.12 256.26 208.1 387 193 341.48 159.12"/><polygon class="cls-90" points="282.53 438.32 260.43 478.8 272.93 498.44 308.55 517.77 344.17 520.04 282.53 438.32"/></svg>